<svg width="41" height="40" viewBox="0 0 41 40" fill="none" xmlns="http://www.w3.org/2000/svg">
<path d="M28.4167 10H33.8333C34.2754 10 34.6993 10.1756 35.0118 10.4882C35.3244 10.8007 35.5 11.2246 35.5 11.6667V17.0833C35.5 17.4149 35.3683 17.7328 35.1339 17.9672C34.8995 18.2016 34.5815 18.3333 34.25 18.3333H33.8333C32.9493 18.3333 32.1014 18.6845 31.4763 19.3096C30.8512 19.9348 30.5 20.7826 30.5 21.6667C30.5 22.5507 30.8512 23.3986 31.4763 24.0237C32.1014 24.6488 32.9493 25 33.8333 25H34.25C34.5815 25 34.8995 25.1317 35.1339 25.3661C35.3683 25.6005 35.5 25.9185 35.5 26.25V33.3333C35.5 33.7754 35.3244 34.1993 35.0118 34.5118C34.6993 34.8244 34.2754 35 33.8333 35H28.4167C28.0851 35 27.7672 34.8683 27.5328 34.6339C27.2984 34.3995 27.1667 34.0815 27.1667 33.75V33.3333C27.1667 32.4493 26.8155 31.6014 26.1904 30.9763C25.5652 30.3512 24.7174 30 23.8333 30C22.9493 30 22.1014 30.3512 21.4763 30.9763C20.8512 31.6014 20.5 32.4493 20.5 33.3333V33.75C20.5 34.0815 20.3683 34.3995 20.1339 34.6339C19.8995 34.8683 19.5815 35 19.25 35H12.1667C11.7246 35 11.3007 34.8244 10.9882 34.5118C10.6756 34.1993 10.5 33.7754 10.5 33.3333V26.25C10.5 25.9185 10.3683 25.6005 10.1339 25.3661C9.89946 25.1317 9.58152 25 9.25 25H8.83333C7.94928 25 7.10143 24.6488 6.47631 24.0237C5.85119 23.3986 5.5 22.5507 5.5 21.6667C5.5 20.7826 5.85119 19.9348 6.47631 19.3096C7.10143 18.6845 7.94928 18.3333 8.83333 18.3333H9.25C9.58152 18.3333 9.89946 18.2016 10.1339 17.9672C10.3683 17.7328 10.5 17.4149 10.5 17.0833V11.6667C10.5 11.2246 10.6756 10.8007 10.9882 10.4882C11.3007 10.1756 11.7246 10 12.1667 10H19.25C19.5815 10 19.8995 9.8683 20.1339 9.63388C20.3683 9.39946 20.5 9.08152 20.5 8.75V8.33333C20.5 7.44928 20.8512 6.60143 21.4763 5.97631C22.1014 5.35119 22.9493 5 23.8333 5C24.7174 5 25.5652 5.35119 26.1904 5.97631C26.8155 6.60143 27.1667 7.44928 27.1667 8.33333V8.75C27.1667 9.44 27.7267 10 28.4167 10Z" stroke="#FFD287" stroke-width="3.41667" stroke-linecap="round" stroke-linejoin="round"/>
</svg>
