<svg width="33" height="32" viewBox="0 0 33 32" fill="none" xmlns="http://www.w3.org/2000/svg">
<path fill-rule="evenodd" clip-rule="evenodd" d="M8.5 8V12H12.5V8H8.5ZM6.5 5C6.23478 5 5.98043 5.10536 5.79289 5.29289C5.60536 5.48043 5.5 5.73478 5.5 6V14C5.5 14.2652 5.60536 14.5196 5.79289 14.7071C5.98043 14.8946 6.23478 15 6.5 15H14.5C14.7652 15 15.0196 14.8946 15.2071 14.7071C15.3946 14.5196 15.5 14.2652 15.5 14V6C15.5 5.73478 15.3946 5.48043 15.2071 5.29289C15.0196 5.10536 14.7652 5 14.5 5H6.5ZM20.5 8V12H24.5V8H20.5ZM18.5 5C18.2348 5 17.9804 5.10536 17.7929 5.29289C17.6054 5.48043 17.5 5.73478 17.5 6V14C17.5 14.2652 17.6054 14.5196 17.7929 14.7071C17.9804 14.8946 18.2348 15 18.5 15H26.5C26.7652 15 27.0196 14.8946 27.2071 14.7071C27.3946 14.5196 27.5 14.2652 27.5 14V6C27.5 5.73478 27.3946 5.48043 27.2071 5.29289C27.0196 5.10536 26.7652 5 26.5 5H18.5ZM8.5 20V24H12.5V20H8.5ZM6.5 17C6.23478 17 5.98043 17.1054 5.79289 17.2929C5.60536 17.4804 5.5 17.7348 5.5 18V26C5.5 26.2652 5.60536 26.5196 5.79289 26.7071C5.98043 26.8946 6.23478 27 6.5 27H14.5C14.7652 27 15.0196 26.8946 15.2071 26.7071C15.3946 26.5196 15.5 26.2652 15.5 26V18C15.5 17.7348 15.3946 17.4804 15.2071 17.2929C15.0196 17.1054 14.7652 17 14.5 17H6.5Z" fill="#FFD287"/>
<path d="M17.5 18C17.5 17.7348 17.6054 17.4804 17.7929 17.2929C17.9804 17.1054 18.2348 17 18.5 17H26.5C26.7652 17 27.0196 17.1054 27.2071 17.2929C27.3946 17.4804 27.5 17.7348 27.5 18V26C27.5 26.2652 27.3946 26.5196 27.2071 26.7071C27.0196 26.8946 26.7652 27 26.5 27H18.5C18.2348 27 17.9804 26.8946 17.7929 26.7071C17.6054 26.5196 17.5 26.2652 17.5 26V18Z" fill="#FFD287"/>
<path fill-rule="evenodd" clip-rule="evenodd" d="M0.5 2C0.5 1.46957 0.710714 0.960859 1.08579 0.585786C1.46086 0.210714 1.96957 0 2.5 0H9.5C10.0304 0 10.5391 0.210714 10.9142 0.585786C11.2893 0.960859 11.5 1.46957 11.5 2C11.5 2.53043 11.2893 3.03914 10.9142 3.41421C10.5391 3.78929 10.0304 4 9.5 4H2.5C1.96957 4 1.46086 3.78929 1.08579 3.41421C0.710714 3.03914 0.5 2.53043 0.5 2Z" fill="#FFD287"/>
<path fill-rule="evenodd" clip-rule="evenodd" d="M2.5 0C3.03043 0 3.53914 0.210714 3.91421 0.585786C4.28929 0.960859 4.5 1.46957 4.5 2V9C4.5 9.53043 4.28929 10.0391 3.91421 10.4142C3.53914 10.7893 3.03043 11 2.5 11C1.96957 11 1.46086 10.7893 1.08579 10.4142C0.710714 10.0391 0.5 9.53043 0.5 9V2C0.5 1.46957 0.710714 0.960859 1.08579 0.585786C1.46086 0.210714 1.96957 0 2.5 0ZM2.5 32C1.96957 32 1.46086 31.7893 1.08579 31.4142C0.710714 31.0391 0.5 30.5304 0.5 30V23C0.5 22.4696 0.710714 21.9609 1.08579 21.5858C1.46086 21.2107 1.96957 21 2.5 21C3.03043 21 3.53914 21.2107 3.91421 21.5858C4.28929 21.9609 4.5 22.4696 4.5 23V30C4.5 30.5304 4.28929 31.0391 3.91421 31.4142C3.53914 31.7893 3.03043 32 2.5 32Z" fill="#FFD287"/>
<path fill-rule="evenodd" clip-rule="evenodd" d="M0.5 30C0.5 29.4696 0.710714 28.9609 1.08579 28.5858C1.46086 28.2107 1.96957 28 2.5 28H9.5C10.0304 28 10.5391 28.2107 10.9142 28.5858C11.2893 28.9609 11.5 29.4696 11.5 30C11.5 30.5304 11.2893 31.0391 10.9142 31.4142C10.5391 31.7893 10.0304 32 9.5 32H2.5C1.96957 32 1.46086 31.7893 1.08579 31.4142C0.710714 31.0391 0.5 30.5304 0.5 30ZM32.5 30C32.5 30.5304 32.2893 31.0391 31.9142 31.4142C31.5391 31.7893 31.0304 32 30.5 32H23.5C22.9696 32 22.4609 31.7893 22.0858 31.4142C21.7107 31.0391 21.5 30.5304 21.5 30C21.5 29.4696 21.7107 28.9609 22.0858 28.5858C22.4609 28.2107 22.9696 28 23.5 28H30.5C31.0304 28 31.5391 28.2107 31.9142 28.5858C32.2893 28.9609 32.5 29.4696 32.5 30Z" fill="#FFD287"/>
<path fill-rule="evenodd" clip-rule="evenodd" d="M30.5 32C29.9696 32 29.4609 31.7893 29.0858 31.4142C28.7107 31.0391 28.5 30.5304 28.5 30V23C28.5 22.4696 28.7107 21.9609 29.0858 21.5858C29.4609 21.2107 29.9696 21 30.5 21C31.0304 21 31.5391 21.2107 31.9142 21.5858C32.2893 21.9609 32.5 22.4696 32.5 23V30C32.5 30.5304 32.2893 31.0391 31.9142 31.4142C31.5391 31.7893 31.0304 32 30.5 32ZM30.5 0C31.0304 0 31.5391 0.210714 31.9142 0.585786C32.2893 0.960859 32.5 1.46957 32.5 2V9C32.5 9.53043 32.2893 10.0391 31.9142 10.4142C31.5391 10.7893 31.0304 11 30.5 11C29.9696 11 29.4609 10.7893 29.0858 10.4142C28.7107 10.0391 28.5 9.53043 28.5 9V2C28.5 1.46957 28.7107 0.960859 29.0858 0.585786C29.4609 0.210714 29.9696 0 30.5 0Z" fill="#FFD287"/>
<path fill-rule="evenodd" clip-rule="evenodd" d="M32.5 2C32.5 2.53043 32.2893 3.03914 31.9142 3.41421C31.5391 3.78929 31.0304 4 30.5 4H23.5C22.9696 4 22.4609 3.78929 22.0858 3.41421C21.7107 3.03914 21.5 2.53043 21.5 2C21.5 1.46957 21.7107 0.960859 22.0858 0.585786C22.4609 0.210714 22.9696 0 23.5 0H30.5C31.0304 0 31.5391 0.210714 31.9142 0.585786C32.2893 0.960859 32.5 1.46957 32.5 2Z" fill="#FFD287"/>
</svg>
